Coordinates
version=1
nRows=9
nColumns=24
inDegrees=yes

Units are S.I. units (second, meters, Newtons, ...)
Angles are in degrees.

endheader
time	pelvis_tilt	pelvis_list	pelvis_rotation	pelvis_tx	pelvis_ty	pelvis_tz	hip_flexion_r	hip_adduction_r	hip_rotation_r	knee_angle_r	ankle_angle_r	subtalar_angle_r	mtp_angle_r	hip_flexion_l	hip_adduction_l	hip_rotation_l	knee_angle_l	ankle_angle_l	subtalar_angle_l	mtp_angle_l	lumbar_extension	lumbar_bending	lumbar_rotation
      4.45000000	     12.24398325	     12.56214697	     16.14912829	     -0.10370831	      0.73052496	     -0.30612876	     16.52915233	    -14.40643594	    -11.22044459	    -20.37388563	     21.92536762	      9.11916170	      0.00000000	    -25.59530651	      7.18480425	     10.02938303	    -30.24580638	     31.71695915	     14.95538215	      0.00000000	    -34.04689863	     -3.47175431	    -18.75960278
      4.45500000	     12.26455873	     12.13933721	     16.16618181	     -0.09531585	      0.73001194	     -0.30568593	     16.57165709	    -13.83381895	    -11.26358070	    -21.36010250	     21.26265823	      8.40357619	      0.00000000	    -25.14519472	      6.62919103	      9.68154342	    -32.08703254	     30.72850069	     15.03184930	      0.00000000	    -33.74918664	     -3.16245330	    -18.19167793
      4.46000000	     12.30541871	     11.69752708	     16.11524519	     -0.08690706	      0.72956131	     -0.30513165	     16.60944137	    -13.20596363	    -11.20120724	    -22.38106310	     20.58212617	      7.66682507	      0.00000000	    -24.65694292	      6.06170000	      9.22495656	    -33.97078945	     29.47219438	     15.14748515	      0.00000000	    -33.47143527	     -2.86446607	    -17.58608548
      4.46500000	     12.35125959	     11.21869584	     16.04997883	     -0.07853308	      0.72915805	     -0.30455989	     16.63649128	    -12.54372988	    -11.18034296	    -23.40647230	     19.94162735	      7.08663868	      0.00000000	    -24.09963563	      5.47223277	      8.76834792	    -35.92722641	     28.03778289	     15.18896439	      0.00000000	    -33.19904527	     -2.53217089	    -16.95495206
      4.47000000	     12.44737352	     10.70528588	     15.96414340	     -0.07019941	      0.72885212	     -0.30405257	     16.59703572	    -11.86736851	    -11.30306415	    -24.42668402	     19.38588944	      6.86559632	      0.00000000	    -23.53684310	      4.86977055	      8.34286979	    -37.92563141	     26.40664844	     15.01650186	      0.00000000	    -32.97448013	     -2.13589073	    -16.30579215
      4.47500000	     12.43751647	     10.15064426	     15.87779309	     -0.06192706	      0.72847406	     -0.30335180	     16.68673541	    -11.11214896	    -11.21938704	    -25.45234105	     18.87333839	      6.26714454	      0.00000000	    -22.76001772	      4.21985627	      7.81108127	    -40.01068056	     24.59773022	     14.99841674	      0.00000000	    -32.65198835	     -1.76481854	    -15.70347925
      4.48000000	     12.47703636	      9.57239630	     15.78583608	     -0.05372979	      0.72821004	     -0.30273438	     16.68836651	    -10.35329363	    -11.27475564	    -26.42734828	     18.50958908	      6.00524194	      0.00000000	    -21.98304135	      3.56754909	      7.36263510	    -42.10960505	     22.60131580	     14.74058639	      0.00000000	    -32.38992929	     -1.33236797	    -15.09009856
      4.48500000	     12.58255286	      8.98442578	     15.68598824	     -0.04563564	      0.72809171	     -0.30215987	     16.57497080	     -9.58873831	    -11.42169024	    -27.32539681	     18.26161591	      6.02319469	      0.00000000	    -21.22338948	      2.90995615	      6.97063396	    -44.20686229	     20.43310690	     14.32118031	      0.00000000	    -32.22088956	     -0.85599634	    -14.48527462
      4.49000000	     12.57320025	      8.34496980	     15.60850999	     -0.03764048	      0.72788296	     -0.30152691	     16.59347813	     -8.77132194	    -11.49601863	    -28.21850792	     18.11895420	      5.77205700	      0.00000000	    -20.25282839	      2.22675086	      6.58471726	    -46.35159950	     18.20147385	     13.84526980	      0.00000000	    -31.93743011	     -0.35991779	    -13.92708886
